<?xml version="1.0" encoding="utf-8"?>
<!-- Generator: Adobe Illustrator 16.0.0, SVG Export Plug-In . SVG Version: 6.00 Build 0)  -->
<!DOCTYPE svg PUBLIC "-//W3C//DTD SVG 1.1//EN" "http://www.w3.org/Graphics/SVG/1.1/DTD/svg11.dtd">
<svg version="1.1" id="Layer_1" xmlns="http://www.w3.org/2000/svg" xmlns:xlink="http://www.w3.org/1999/xlink" x="0px" y="0px"
	 width="500px" height="500px" viewBox="0 0 500 500" enable-background="new 0 0 500 500" xml:space="preserve">
<path fill-rule="evenodd" clip-rule="evenodd" fill="#003C58" d="M464.676,62.708c0,4.048,0,7.14,0,10.233
	c0,112.122,0.009,224.243-0.005,336.365c-0.005,34.7-19.541,54.311-54.409,54.044c-99.157-0.754-183.167-38.042-254.4-105.821
	c-25.098-23.878-45.988-51.02-63.271-81.039c-3.749-6.511-4.013-11.486,0.058-18.122c41.604-67.813,100.543-115.405,172.446-147.752
	c55.55-24.991,114.287-38.135,174.557-45.144C447.609,64.545,455.578,63.709,464.676,62.708z"/>
<path fill-rule="evenodd" clip-rule="evenodd" fill="#A8BD3A" d="M69.337,223.208c-5.844-17.945-11.967-35.303-17.131-52.941
	c-8.21-28.042-14.774-56.511-14.601-85.921c0.048-8.156,1.833-16.81,4.983-24.332c6.223-14.86,18.337-23.203,34.591-23.236
	c105-0.212,210-0.108,316.04-0.108c-25.415,5.592-50.11,9.885-74.115,16.626c-24.708,6.938-49.465,14.642-72.87,25.006
	c-23.13,10.243-45.644,22.712-66.505,37.002c-21.115,14.463-41.055,31.156-59.333,49.084
	C102.385,182.052,87.101,202.49,69.337,223.208z"/>
<path fill-rule="evenodd" clip-rule="evenodd" fill="#003C58" d="M36.88,462.796c0-28.18-1.341-55.679,0.601-82.946
	c0.887-12.444,7.799-24.617,12.782-36.579c7.2-17.28,15.131-34.259,23.664-53.417c49.466,83.892,116.114,144.166,208.946,172.942
	C201.308,462.796,119.743,462.796,36.88,462.796z"/>
<path fill-rule="evenodd" clip-rule="evenodd" fill="#A9BC47" d="M37.93,205.578c5.504,13.914,10.624,26.435,15.328,39.111
	c0.911,2.457,1.123,5.945,0.069,8.225c-4.451,9.622-9.502,18.966-15.396,30.488C37.93,256.271,37.93,231.461,37.93,205.578z"/>
</svg>
