<?xml version="1.0" encoding="utf-8"?>
<!-- Generator: Adobe Illustrator 16.0.0, SVG Export Plug-In . SVG Version: 6.00 Build 0)  -->
<!DOCTYPE svg PUBLIC "-//W3C//DTD SVG 1.1//EN" "http://www.w3.org/Graphics/SVG/1.1/DTD/svg11.dtd">
<svg version="1.1" xmlns="http://www.w3.org/2000/svg" xmlns:xlink="http://www.w3.org/1999/xlink" x="0px" y="0px" width="500px"
	 height="500px" viewBox="0 0 500 500" enable-background="new 0 0 500 500" xml:space="preserve">
<g id="Layer_1">
</g>
<g id="Layer_2">
	<path fill-rule="evenodd" clip-rule="evenodd" fill="#003C58" d="M397.271,121.75c0,2.772,0,4.889,0,7.007
		c0,76.777,0.006,153.553-0.003,230.33c-0.004,23.762-13.382,37.189-37.258,37.008c-67.899-0.516-125.426-26.051-174.204-72.463
		c-17.186-16.351-31.491-34.936-43.326-55.492c-2.566-4.459-2.748-7.865,0.04-12.41c28.489-46.435,68.849-79.024,118.084-101.175
		c38.039-17.113,78.26-26.114,119.53-30.913C385.585,123.009,391.042,122.437,397.271,121.75z"/>
	<path fill-rule="evenodd" clip-rule="evenodd" fill="#A8BD3A" d="M126.558,231.655c-4.001-12.288-8.194-24.174-11.73-36.252
		c-5.622-19.202-10.117-38.696-9.998-58.835c0.033-5.585,1.255-11.511,3.413-16.662c4.261-10.176,12.556-15.889,23.687-15.911
		c71.9-0.146,143.8-0.074,216.412-0.074c-17.403,3.829-34.313,6.769-50.751,11.385c-16.92,4.751-33.872,10.026-49.899,17.123
		c-15.839,7.014-31.255,15.552-45.541,25.337c-14.459,9.904-28.113,21.335-40.629,33.611
		C149.188,203.474,138.722,217.469,126.558,231.655z"/>
	<path fill-rule="evenodd" clip-rule="evenodd" fill="#003C58" d="M104.333,395.717c0-19.297-0.918-38.127,0.412-56.799
		c0.607-8.521,5.34-16.857,8.752-25.049c4.93-11.832,10.361-23.459,16.204-36.577c33.873,57.446,79.511,98.72,143.079,118.425
		C216.927,395.717,161.074,395.717,104.333,395.717z"/>
	<path fill-rule="evenodd" clip-rule="evenodd" fill="#A9BC47" d="M105.051,219.583c3.769,9.528,7.275,18.102,10.496,26.782
		c0.624,1.682,0.769,4.07,0.047,5.632c-3.048,6.589-6.507,12.987-10.543,20.878C105.051,254.295,105.051,237.307,105.051,219.583z"
		/>
</g>
</svg>
