<?xml version="1.0" encoding="utf-8"?>
<!-- Generator: Adobe Illustrator 16.0.0, SVG Export Plug-In . SVG Version: 6.00 Build 0)  -->
<!DOCTYPE svg PUBLIC "-//W3C//DTD SVG 1.1//EN" "http://www.w3.org/Graphics/SVG/1.1/DTD/svg11.dtd">
<svg version="1.1" id="Layer_1" xmlns="http://www.w3.org/2000/svg" xmlns:xlink="http://www.w3.org/1999/xlink" x="0px" y="0px"
	 width="500px" height="500px" viewBox="0 0 500 500" enable-background="new 0 0 500 500" xml:space="preserve">
<g>
	<path fill-rule="evenodd" clip-rule="evenodd" fill="none" d="M480.965,46.87c-32.579,2.892-63.571,7.448-94.357,13.729
		c-57.876,11.81-113.41,30.148-164.428,60.28c-58.301,34.435-107.136,78.944-142.343,137.529c-3.97,6.607-3.647,11.511,0.096,17.775
		c11.994,20.069,24.35,39.749,40.92,56.564c7.165,7.273,12.438,16.397,19.54,23.745c21.523,22.262,45.48,41.648,71.47,58.53
		c60.25,39.147,126.303,60.276,197.996,63.72c11.169,0.535,22.465,0.843,33.437-2.397c23.934-7.062,37.657-26.952,37.66-54.815
		c0.021-121.809,0.01-243.617,0.01-365.423C480.965,53.349,480.965,50.592,480.965,46.87z M55.817,221.474
		c18.623-28.542,39.015-52.503,62.09-74.337c38.063-36.017,80.778-65.018,128.803-85.813
		c39.405-17.063,80.723-28.125,122.836-36.373c10.343-2.026,21.064-2.57,30.96-6.738c-112.48-0.404-224.892-0.445-337.301-0.369
		c-21.83,0.015-37.247,19.391-41.586,35.599c-3.838,14.342-1.396,28.647,0.443,42.668c4.533,34.535,13.661,68.06,25.347,100.879
		C50.095,204.527,52.613,212.126,55.817,221.474z M19.761,478.205c16.459,1.347,252.012,0.849,260.197-1.254
		c-97.98-31.496-168.571-95.691-219.831-183.307c-11.909,22.944-22.285,46.059-31.112,69.869c-3.327,8.979-8.752,17.684-8.99,27.18
		C19.297,419.662,19.761,448.657,19.761,478.205z M20.841,280.692c0.452,0.071,0.903,0.146,1.355,0.219
		c4.648-8.96,8.957-18.121,14.084-26.795c2.575-4.356,2.554-7.906,0.518-12.205c-4.526-9.558-8.329-19.418-12.047-29.326
		c-1.192-3.172,0.339-7.671-3.911-9.991C20.841,228.935,20.841,254.813,20.841,280.692z"/>
	<path fill-rule="evenodd" clip-rule="evenodd" fill="#033D58" d="M480.965,46.87c0,3.722,0,6.479,0,9.238
		c0,121.806,0.012,243.614-0.01,365.423c-0.003,27.863-13.727,47.754-37.66,54.815c-10.972,3.24-22.268,2.933-33.437,2.397
		c-71.693-3.443-137.746-24.572-197.996-63.72c-25.989-16.882-49.946-36.269-71.47-58.53c-7.102-7.348-12.375-16.472-19.54-23.745
		c-16.57-16.815-28.927-36.495-40.92-56.564c-3.743-6.265-4.066-11.168-0.096-17.775c35.207-58.585,84.042-103.095,142.343-137.529
		c51.018-30.132,106.552-48.471,164.428-60.28C417.394,54.317,448.386,49.762,480.965,46.87z"/>
	<path fill-rule="evenodd" clip-rule="evenodd" fill="#A9BD3D" d="M55.817,221.474c-3.204-9.347-5.723-16.946-8.408-24.484
		C35.724,164.17,26.595,130.645,22.063,96.11c-1.839-14.021-4.281-28.326-0.443-42.668c4.339-16.208,19.756-35.583,41.586-35.599
		c112.409-0.077,224.821-0.036,337.301,0.369c-9.896,4.168-20.617,4.712-30.96,6.738c-42.113,8.249-83.432,19.311-122.836,36.373
		c-48.025,20.795-90.74,49.796-128.803,85.813C94.833,168.971,74.44,192.932,55.817,221.474z"/>
	<path fill-rule="evenodd" clip-rule="evenodd" fill="#033D58" d="M19.761,478.205c0-29.548-0.464-58.543,0.264-87.512
		c0.237-9.496,5.663-18.201,8.99-27.18c8.828-23.811,19.204-46.925,31.112-69.869c51.26,87.615,121.851,151.811,219.831,183.307
		C271.773,479.054,36.221,479.552,19.761,478.205z"/>
	<path fill-rule="evenodd" clip-rule="evenodd" fill="#A9BD3D" d="M20.841,280.692c0-25.879,0-51.758,0-78.098
		c4.25,2.32,2.718,6.818,3.911,9.991c3.718,9.908,7.521,19.768,12.047,29.326c2.036,4.298,2.057,7.849-0.518,12.205
		c-5.127,8.674-9.436,17.835-14.084,26.795C21.744,280.838,21.293,280.764,20.841,280.692z"/>
</g>
</svg>
